# AST/ASF file generated using VICON BodyLanguage
# -----------------------------------------------
:version 1.10
:name VICON
:units
  mass 1.0
  length 0.45
  angle deg
:documentation
   .ast/.asf automatically generated from VICON data using
   VICON BodyBuilder and BodyLanguage model FoxedUp or BRILLIANT.MOD
:root
   order TX TY TZ RX RY RZ
   axis XYZ
   position 0 0 0  
   orientation 0 0 0 
:bonedata
  begin
     id 1 
     name lhipjoint
     direction 0.575328 -0.747301 0.332475 
     length 2.40933 
     axis 0 0 0  XYZ
  end
  begin
     id 2 
     name lfemur
     direction 0.34202 -0.939693 0  
     length 7.31453  
     axis 0 0 20  XYZ
    dof rx ry rz
    limits (-160.0 20.0)
           (-70.0 70.0)
           (-60.0 70.0)
  end
  begin
     id 3 
     name ltibia
     direction 0.34202 -0.939693 0   
     length 7.82185   
     axis 0 0 20   XYZ
    dof rx
    limits (-10.0 170.0)
  end
  begin
     id 4 
     name lfoot
     direction 0.0795993 -0.218697 0.972541   
     length 2.19173   
     axis -90 7.62852e-016 20   XYZ
    dof rx rz
    limits (-45.0 90.0)
           (-70.0 20.0)
  end
  begin
     id 5 
     name ltoes
     direction 1.53537e-011 -4.21894e-011 1   
     length 1.10023   
     axis -90 7.62852e-016 20   XYZ
    dof rx
    limits (-90.0 20.0)
  end
  begin
     id 6 
     name rhipjoint
     direction -0.513884 -0.783789 0.348708   
     length 2.29716  
     axis 0 0 0  XYZ 
  end
  begin
     id 7 
     name rfemur
     direction -0.34202 -0.939693 0   
     length 7.59573   
     axis 0 0 -20   XYZ
    dof rx ry rz
    limits (-160.0 20.0)
           (-70.0 70.0)
           (-70.0 60.0)
  end
  begin
     id 8 
     name rtibia
     direction -0.34202 -0.939693 0   
     length 7.66402   
     axis 0 0 -20   XYZ
    dof rx
    limits (-10.0 170.0)
 end
 begin
     id 9 
     name rfoot
     direction -0.137793 -0.378584 0.915253   
     length 2.27056  
     axis -90 -7.62852e-016 -20   XYZ
    dof rx rz
    limits (-45.0 90.0)
           (-20.0 70.0)
  end
  begin
     id 10 
     name rtoes
     direction -1.53493e-011 -4.22159e-011 1   
     length 1.11766   
     axis -90 -7.62852e-016 -20   XYZ
    dof rx
    limits (-90.0 20.0)
  end
  begin
     id 11 
     name lowerback
     direction -0.00732775 0.998356 -0.05685   
     length 2.16513   
     axis 0 0 0   XYZ
    dof rx ry rz
    limits (-20.0 45.0)
           (-30.0 30.0)
           (-30.0 30.0)
  end
  begin
     id 12 
     name upperback
     direction 0.0218081 0.999627 -0.0164647   
     length 2.16755   
     axis 0 0 0   XYZ
    dof rx ry rz
    limits (-20.0 45.0)
           (-30.0 30.0)
           (-30.0 30.0)
  end
  begin
     id 13 
     name thorax
     direction 0.02365 0.999661 0.0108914   
     length 2.16932   
     axis 0 0 0   XYZ
    dof rx ry rz
    limits (-20.0 45.0)
           (-30.0 30.0)
           (-30.0 30.0)
  end
  begin
     id 14 
     name lowerneck
     direction -0.0523929 0.978385 0.200044   
     length 1.63877   
     axis 0 0 0   XYZ
    dof rx ry rz
    limits (-20.0 45.0)
           (-30.0 30.0)
           (-30.0 30.0)
  end
  begin
     id 15 
     name upperneck
     direction 0.0448674 0.981321 -0.187074   
     length 1.69014   
     axis 0 0 0   XYZ
    dof rx ry rz
    limits (-20.0 45.0)
           (-30.0 30.0)
           (-30.0 30.0)
  end
  begin
     id 16
     name head
     direction 0.0199089 0.996118 -0.0857429  
     length 1.70094  
     axis 0 0 0   XYZ
    dof rx ry rz
    limits (-20.0 45.0)
           (-30.0 30.0)
           (-30.0 30.0)
  end
  begin
     id 17 
     name lclavicle
     direction 0.940366 0.30191 -0.156722  
     length 3.37521  
     axis 0 0 0   XYZ
    dof ry rz
    limits (-20.0 10.0)
           (0.0 20.0)
  end
  begin
     id 18 
     name lhumerus
     direction 1 -4.4897e-011 -1.7911e-027   
     length 5.25287   
     axis 180 -30 -90   XYZ
    dof rx ry rz
    limits (-60.0 90.0)
           (-90.0 90.0)
           (-90.0 90.0)
  end
  begin
     id 19
     name lradius
     direction 1 -4.48951e-011 1.04424e-027   
     length 3.51014   
     axis 180 -30 -90   XYZ
    dof rx
    limits (-10.0 170.0)
  end
  begin
     id 20
     name lwrist
     direction 1 -4.48997e-011 -9.5942e-028   
     length 1.75507   
     axis 8.48502e-016 90 90   XYZ
    dof ry
    limits (-180.0 0.0)
 end
  begin
     id 21 
     name lhand
     direction 1 -4.48831e-011 -1.90777e-027   
     length 0.706179   
     axis 1.22306e-015 90 90   XYZ
    dof rx rz
    limits (-90.0 90.0)
           (-45.0 45.0)
  end
  begin
     id 22 
     name lfingers
     direction 1 -4.49108e-011 -3.85244e-027   
     length 0.569339   
     axis 2.44611e-015 90 90   XYZ
    dof rx
    limits (0.0 90.0)
  end
  begin
     id 23
     name lthumb
     direction 0.707107 -6.34953e-011 0.707107   
     length 0.817461   
     axis -90 45 -1.62303e-014   XYZ
    dof rx rz
    limits (-45.0 45.0)
           (-45.0 45.0)
  end
  begin
     id 24 
     name rclavicle
     direction -0.905329 0.382405 -0.184787   
     length 3.30787  
     axis 0 0 0   XYZ 
    dof ry rz
    limits (-10.0 20.0)
           (-20.0 0.0)
  end
  begin
     id 25 
     name rhumerus
     direction -1 -4.48953e-011 -9.15316e-029  
     length 5.28721   
     axis 180 30 90   XYZ
    dof rx ry rz
    limits (-90.0 60.0)
           (-90.0 90.0)
           (-90.0 90.0)
  end
  begin
     id 26 
     name rradius
     direction -1 -4.48987e-011 9.37824e-028   
     length 3.50544   
     axis 180 30 90   XYZ
    dof rx
    limits (-10.0 170.0)
  end
  begin
     id 27 
     name rwrist
     direction -1 -4.48967e-011 -9.58414e-028   
     length 1.75272   
     axis 8.48502e-016 -90 -90   XYZ
    dof ry
    limits (-180.0 0.0)
  end
  begin
     id 28
     name rhand
     direction -1 -4.48904e-011 -1.91266e-027   
     length 0.884996   
     axis 1.22306e-015 -90 -90   XYZ
    dof rx rz
    limits (-90.0 90.0)
           (-45.0 45.0)
  end
  begin
     id 29
     name rfingers
     direction -1 -4.4909e-011 -3.85015e-027   
     length 0.713507   
     axis 2.44611e-015 -90 -90   XYZ
    dof rx
    limits (0.0 90.0)
  end
  begin
     id 30
     name rthumb
     direction -0.707107 -6.34853e-011 0.707107   
     length 1.02446   
     axis -90 -45 1.62303e-014   XYZ
    dof rx rz
    limits (-45.0 45.0)
           (-45.0 45.0)
  end
:hierarchy
  begin
    root lhipjoint rhipjoint lowerback
    lhipjoint lfemur
    lfemur ltibia
    ltibia lfoot
    lfoot ltoes
    rhipjoint rfemur
    rfemur rtibia
    rtibia rfoot
    rfoot rtoes
    lowerback upperback
    upperback thorax
    thorax lowerneck lclavicle rclavicle
    lowerneck upperneck
    upperneck head
    lclavicle lhumerus
    lhumerus lradius
    lradius lwrist
    lwrist lhand lthumb
    lhand lfingers
    rclavicle rhumerus
    rhumerus rradius
    rradius rwrist
    rwrist rhand rthumb
    rhand rfingers
  end

#!OML:ASF F:\twosubjects\two\Thursday\Session 1\justin.ASF
:FULLY-SPECIFIED
:DEGREES
197
root 8.26466 18.0105 1.99999 -166.746 18.7137 177.426
lowerback 8.75413 1.74907 -8.02505
upperback 6.1996 2.90757 9.84918
thorax 0.850524 1.53033 15.264
lowerneck -17.9048 -7.59791 -12.4343
upperneck 29.354 -8.75919 9.79511
head 14.0727 -3.49336 4.61667
rclavicle 0 -2.22639e-014
rhumerus 60.5462 3.18263 -58.1903
rradius 50.7698
rwrist -23.3413
rhand -57.0555 24.6275
rfingers 7.12502
rthumb -29.3445 -3.07647
lclavicle 0 -2.22639e-014
lhumerus 58.2854 -3.94441 83.1027
lradius 51.3672
lwrist 4.96209
lhand -31.3108 53.0324
lfingers 7.12502
lthumb -4.58328 442.963
rfemur -36.6011 -7.87942 8.35527
rtibia 51.9484
rfoot -17.23 0.0630471
rtoes -20.4021
lfemur -18.8087 10.0749 -25.3332
ltibia 23.4841
lfoot -15.458 0.35055
ltoes -11.9064
198
root 8.29382 18.0132 1.97739 -166.832 18.5102 177.66
lowerback 8.7723 1.67095 -7.738
upperback 6.12471 2.82046 9.84031
thorax 0.79308 1.50114 15.0751
lowerneck -18.1987 -7.44453 -12.1722
upperneck 29.234 -8.55827 9.6028
head 14.0257 -3.40487 4.5179
rclavicle 6.04305e-014 1.24042e-013
rhumerus 60.2595 3.55286 -58.1029
rradius 50.5531
rwrist -22.4269
rhand -58.238 25.0965
rfingers 7.12502
rthumb -30.4729 -2.40406
lclavicle 6.04305e-014 1.24042e-013
lhumerus 58.039 -3.9396 83.2677
lradius 51.1861
lwrist 5.13244
lhand -31.1889 52.5819
lfingers 7.12502
lthumb -4.46556 442.515
rfemur -36.5112 -7.97322 8.64767
rtibia 51.6474
rfoot -17.3418 -0.680403
rtoes -18.56
lfemur -18.5293 10.1322 -24.9306
ltibia 23.4867
lfoot -15.634 0.0957169
ltoes -11.3114
199
root 8.32563 18.0186 1.95411 -166.77 18.6288 177.761
lowerback 8.62468 1.60062 -7.88556
upperback 5.97118 2.71318 9.92632
thorax 0.736727 1.44763 15.2876
lowerneck -18.6381 -7.24661 -12.3026
upperneck 29.384 -8.1885 9.55746
head 14.1379 -3.25996 4.59228
rclavicle 8.42847e-014 8.90555e-014
rhumerus 60.1097 4.0864 -58.2012
rradius 50.4111
rwrist -20.8029
rhand -58.377 22.5284
rfingers 7.12502
rthumb -30.6054 -4.94751
lclavicle 8.42847e-014 8.90555e-014
lhumerus 57.5304 -3.55268 83.617
lradius 51.0763
lwrist 5.23036
lhand -31.0226 52.2311
lfingers 7.12502
lthumb -4.30498 442.167
rfemur -36.6818 -7.75875 8.75674
rtibia 51.1318
rfoot -17.4548 -1.42568
rtoes -18.1544
lfemur -18.4554 10.4069 -24.7725
ltibia 23.4968
lfoot -15.7031 -0.0566803
ltoes -11.2474
200
root 8.35677 18.0223 1.91959 -166.668 18.8143 177.933
lowerback 8.4595 1.49958 -8.0541
upperback 5.76134 2.574 10.1095
thorax 0.637635 1.38524 15.6369
lowerneck -18.6626 -7.06614 -12.6757
upperneck 29.3692 -7.83142 9.63217
head 14.1096 -3.1416 4.75469
rclavicle -3.33958e-014 -7.31528e-014
rhumerus 60.0492 4.90853 -57.8947
rradius 50.2433
rwrist -21.0797
rhand -58.7558 23.667
rfingers 7.12502
rthumb -30.9666 -3.74085
lclavicle -3.33958e-014 -7.31528e-014
lhumerus 56.8024 -3.00355 83.957
lradius 51.0141
lwrist 5.34527
lhand -30.9787 52.0535
lfingers 7.12502
lthumb -4.26257 441.991
rfemur -36.7464 -7.51726 8.93924
rtibia 50.4241
rfoot -17.8941 -2.46128
rtoes -18.875
lfemur -18.2858 10.5367 -24.5558
ltibia 23.394
lfoot -15.6258 0.00544821
ltoes -10.9869
201
root 8.38786 18.0219 1.88319 -166.786 18.7612 177.946
lowerback 8.48726 1.37624 -8.09943
upperback 5.555 2.39726 10.1782
thorax 0.453736 1.31169 15.7646
lowerneck -18.1948 -6.847 -12.8827
upperneck 28.8504 -7.5052 9.61235
head 13.7438 -3.0471 4.82099
rclavicle 3.97569e-014 -3.81667e-014
rhumerus 59.8547 5.59462 -57.5613
rradius 50.0732
rwrist -22.19
rhand -58.7372 26.2255
rfingers 7.12502
rthumb -30.9488 -1.18575
lclavicle 3.97569e-014 -3.81667e-014
lhumerus 56.1251 -2.69844 84.0296
lradius 50.979
lwrist 5.58474
lhand -31.1542 51.76
lfingers 7.12502
lthumb -4.43209 441.694
rfemur -36.5153 -7.63859 9.00197
rtibia 49.583
rfoot -18.3425 -3.79234
rtoes -17.6653
lfemur -17.8711 10.3508 -24.4071
ltibia 23.2501
lfoot -15.5853 0.171969
ltoes -10.4499
